<svg width="100%" height="100%" overflow="visible" style="display: block;" viewBox="0 0 231.732 234.08" fill="none" xmlns="http://www.w3.org/2000/svg">
<g id="Group">
<path id="Vector" d="M188.19 18.7264H173.43V9.6096C173.43 4.4352 169.248 0 163.836 0C158.424 0 154.242 4.1888 154.242 9.6096V18.7264H77.49V9.6096C77.49 4.4352 73.308 0 67.896 0C62.484 0 58.302 4.1888 58.302 9.6096V18.7264H43.542C19.434 18.7264 0 38.192 0 62.3392V190.467C0 214.614 19.68 234.08 43.542 234.08H188.19C212.298 234.08 231.732 214.614 231.732 190.467V62.3392C231.732 38.192 212.052 18.7264 188.19 18.7264ZM43.542 37.6992H58.302V46.816C58.302 51.9904 62.484 56.4256 67.896 56.4256C73.308 56.4256 77.49 52.2368 77.49 46.816V37.6992H154.242V46.816C154.242 51.9904 158.424 56.4256 163.836 56.4256C169.248 56.4256 173.43 52.2368 173.43 46.816V37.6992H188.19C201.72 37.6992 212.544 48.7872 212.544 62.3392V74.9056H19.188V62.3392C19.188 48.7872 30.012 37.6992 43.542 37.6992ZM188.19 214.861H43.542C30.012 214.861 18.942 203.773 18.942 190.221V93.8784H212.544V190.221C212.544 204.019 201.72 214.861 188.19 214.861Z" fill="var(--fill-0, white)"/>
<path id="Vector_2" d="M56.4379 159.84H48.2891C42.4144 159.84 37.8662 166.204 37.8662 173.84C37.8662 181.731 42.6039 187.84 48.2891 187.84H56.4379C62.3126 187.84 66.8607 181.476 66.8607 173.84C67.0502 166.204 62.3126 159.84 56.4379 159.84Z" fill="var(--fill-0, white)"/>
<path id="Vector_3" d="M140.438 115.84H132.289C126.414 115.84 121.866 122.204 121.866 129.84C121.866 137.731 126.604 143.84 132.289 143.84H140.438C146.313 143.84 150.861 137.476 150.861 129.84C151.05 122.204 146.313 115.84 140.438 115.84Z" fill="var(--fill-0, white)"/>
<path id="Vector_4" d="M140.438 159.84H132.289C126.414 159.84 121.866 166.204 121.866 173.84C121.866 181.731 126.604 187.84 132.289 187.84H140.438C146.313 187.84 150.861 181.476 150.861 173.84C151.05 166.204 146.313 159.84 140.438 159.84Z" fill="var(--fill-0, white)"/>
<path id="Vector_5" d="M98.4379 115.84H90.2891C84.4144 115.84 79.8662 122.204 79.8662 129.84C79.8662 137.731 84.6039 143.84 90.2891 143.84H98.4379C104.313 143.84 108.861 137.476 108.861 129.84C109.05 122.204 104.313 115.84 98.4379 115.84Z" fill="var(--fill-0, white)"/>
<path id="Vector_6" d="M98.4379 159.84H90.2891C84.4144 159.84 79.8662 166.204 79.8662 173.84C79.8662 181.731 84.6039 187.84 90.2891 187.84H98.4379C104.313 187.84 108.861 181.476 108.861 173.84C109.05 166.204 104.313 159.84 98.4379 159.84Z" fill="var(--fill-0, white)"/>
<path id="Vector_7" d="M182.438 115.84H174.289C168.414 115.84 163.866 122.204 163.866 129.84C163.866 137.731 168.604 143.84 174.289 143.84H182.438C188.313 143.84 192.861 137.476 192.861 129.84C193.05 122.204 188.313 115.84 182.438 115.84Z" fill="var(--fill-0, white)"/>
</g>
</svg>
