<svg width="100%" height="100%" overflow="visible" style="display: block;" viewBox="0 0 230 188.204" fill="none" xmlns="http://www.w3.org/2000/svg">
<path id="Vector" d="M217.679 56.0504H202.7L193.036 25.8508C187.962 10.3887 173.708 0 157.521 0H71.9958C55.8088 0 41.313 10.3887 36.4811 25.8508L26.8172 56.0504H11.8382C5.31513 56.0504 0 61.3656 0 67.8887V74.6534C0 81.1765 5.31513 86.4916 11.8382 86.4916H15.9454C13.5294 97.3635 12.3214 108.477 12.3214 119.59V176.366C12.3214 182.889 17.6366 188.204 24.1597 188.204H43.9706C50.4937 188.204 55.8088 182.889 55.8088 176.366V158.246H174.191V176.366C174.191 182.889 179.506 188.204 186.029 188.204H205.84C212.363 188.204 217.679 182.889 217.679 176.366V119.349C217.679 108.235 216.471 97.1218 214.055 86.25H218.162C224.685 86.25 230 80.9349 230 74.4118V67.6471C229.517 61.3655 224.202 56.0504 217.679 56.0504ZM47.5945 68.1303L58.9496 32.8571C60.8824 27.0588 66.1975 23.1933 71.9958 23.1933H157.521C163.561 23.1933 168.876 27.0588 170.567 32.8571L181.922 68.1303C182.405 69.8214 181.197 71.271 179.506 71.271H50.0105C48.3193 71.5126 47.1113 69.8214 47.5945 68.1303ZM72.2374 125.872H48.3193C44.2122 125.872 41.0714 122.731 41.0714 118.624V107.269C41.0714 102.92 45.1786 99.2962 49.5273 100.021L71.7542 103.645C74.6534 104.128 77.0693 106.303 77.7941 109.202L79.4853 116.933C80.4517 121.523 77.0693 125.872 72.2374 125.872ZM188.204 118.624C188.204 122.731 185.063 125.872 180.956 125.872H157.038C152.447 125.872 149.065 121.523 150.032 117.174L151.723 109.443C152.447 106.544 154.622 104.37 157.763 103.887L179.99 100.263C184.338 99.5378 188.445 102.92 188.445 107.511V118.624H188.204Z" fill="var(--fill-0, black)"/>
</svg>
