<svg width="100%" height="100%" overflow="visible" style="display: block;" viewBox="0 0 60 60" fill="none" xmlns="http://www.w3.org/2000/svg">
<path id="Vector" opacity="0.3" fill-rule="evenodd" clip-rule="evenodd" d="M1.09808 6.40109C-0.366025 4.93699 -0.366025 2.56218 1.09808 1.09808C2.56218 -0.366025 4.937 -0.366025 6.4011 1.09808L30 24.697L53.5989 1.09808C55.063 -0.366025 57.4378 -0.366025 58.9019 1.09808C60.366 2.56218 60.366 4.93699 58.9019 6.40109L35.303 30L58.9019 53.5989C60.366 55.063 60.366 57.4378 58.9019 58.9019C57.4378 60.366 55.063 60.366 53.5989 58.9019L30 35.303L6.4011 58.9019C4.937 60.366 2.56218 60.366 1.09808 58.9019C-0.366025 57.4378 -0.366025 55.063 1.09808 53.5989L24.697 30L1.09808 6.40109Z" fill="var(--fill-0, black)"/>
</svg>
