<svg width="100%" height="100%" overflow="visible" style="display: block;" viewBox="0 0 226.664 226.455" fill="none" xmlns="http://www.w3.org/2000/svg">
<path id="Vector" d="M102.754 226.455H123.909C132.559 226.455 139.333 221.036 141.417 212.699L145.586 194.462L148.295 193.42L164.24 203.32C171.535 207.905 180.185 206.655 186.333 200.506L200.923 185.916C207.176 179.663 208.218 171.118 203.633 163.927L193.732 147.983L194.774 145.482L213.012 141.209C221.245 139.125 226.664 132.351 226.664 123.701V103.171C226.664 94.5213 221.349 87.7475 213.012 85.6632L194.879 81.2863L193.837 78.5767L203.737 62.7363C208.322 55.5456 207.28 47.0001 201.027 40.6431L186.437 26.0533C180.393 19.9047 171.743 18.7584 164.448 23.2395L148.504 33.0356L145.586 31.9934L141.417 13.6519C139.333 5.31487 132.559 0 123.909 0H102.754C94.0003 0 87.2264 5.31487 85.2464 13.6519L81.0778 31.9934L78.1599 33.0356L62.2153 23.2395C54.8161 18.7584 46.2706 19.9047 40.2263 26.0533L25.5322 40.6431C19.3837 47.0001 18.2373 55.5456 22.8227 62.7363L32.7229 78.5767L31.6808 81.2863L13.6519 85.6632C5.31487 87.7475 0 94.5213 0 103.171V123.701C0 132.351 5.41909 139.125 13.6519 141.209L31.8892 145.482L32.8271 147.983L22.9269 163.927C18.3415 171.118 19.4879 179.663 25.6364 185.916L40.3305 200.506C46.3749 206.655 55.0246 207.905 62.3195 203.32L78.2641 193.42L81.0778 194.462L85.2464 212.699C87.2264 221.036 94.0003 226.455 102.754 226.455ZM105.464 207.28C103.692 207.28 102.754 206.55 102.546 204.987L96.293 179.351C89.7275 177.788 83.3705 175.078 78.2641 171.848L55.754 185.708C54.3993 186.542 53.1487 186.437 51.8982 185.187L40.9558 174.244C39.7052 173.098 39.7052 171.848 40.5389 170.493L54.3993 147.983C51.4813 142.98 48.7718 136.728 47.2086 130.162L21.4679 124.014C19.9047 123.805 19.071 122.867 19.071 121.096V105.672C19.071 103.796 19.8005 103.067 21.4679 102.65L47.1044 96.6056C48.6676 89.6233 51.6897 83.1621 54.2951 78.4725L40.4347 56.1709C39.601 54.7119 39.601 53.4614 40.7474 52.2108L51.7939 41.3726C53.0445 40.2263 54.1909 40.0179 55.754 40.9558L78.0557 54.6077C82.7453 51.6897 89.7275 48.7718 96.3972 47.1044L102.546 21.4679C102.754 19.9047 103.692 19.071 105.464 19.071H121.2C122.972 19.071 123.805 19.8005 124.118 21.4679L130.371 47.2086C137.145 48.876 143.293 51.6897 148.504 54.6077L170.805 40.9558C172.369 40.1221 173.515 40.2263 174.765 41.4768L185.812 52.315C187.063 53.4614 187.063 54.7119 186.125 56.1709L172.369 78.4725C174.87 83.1621 177.996 89.6233 179.559 96.6056L205.196 102.65C206.863 103.067 207.488 103.796 207.488 105.672V121.096C207.488 122.867 206.759 123.805 205.196 124.014L179.455 130.162C177.892 136.728 175.078 143.085 172.16 147.983L186.021 170.389C186.854 171.848 186.854 172.994 185.604 174.14L174.661 185.187C173.411 186.437 172.16 186.542 170.805 185.708L148.4 171.848C143.189 175.078 137.249 177.683 130.371 179.351L124.118 204.987C123.805 206.55 122.972 207.28 121.2 207.28H105.464ZM113.384 152.777C135.06 152.777 152.881 134.956 152.881 113.175C152.881 91.6034 135.06 73.7829 113.384 73.7829C91.6034 73.7829 73.6787 91.6034 73.6787 113.175C73.6787 134.956 91.6034 152.777 113.384 152.777ZM113.384 134.748C101.504 134.748 91.8118 125.056 91.8118 113.175C91.8118 101.504 101.608 91.8118 113.384 91.8118C124.952 91.8118 134.643 101.504 134.643 113.175C134.643 124.952 124.952 134.748 113.384 134.748Z" fill="var(--fill-0, white)"/>
</svg>
