<svg width="100%" height="100%" overflow="visible" style="display: block;" viewBox="0 0 265 265" fill="none" xmlns="http://www.w3.org/2000/svg">
<path id="Vector" d="M256.719 124.219H177.809C207.558 99.2135 211.398 54.8302 186.392 25.081C173.011 9.17624 153.289 -0.0107562 132.5 9.45116e-06C127.929 9.45116e-06 124.219 3.70948 124.219 8.2813V87.191C99.2135 57.4418 54.8302 53.6021 25.081 78.6077C9.17623 91.9894 -0.0107562 111.711 9.45116e-06 132.5C9.45116e-06 137.071 3.70948 140.781 8.2813 140.781H87.191C57.4418 165.787 53.6021 210.17 78.6077 239.919C91.9894 255.824 111.711 265.011 132.5 265C137.071 265 140.781 261.291 140.781 256.719V177.809C165.787 207.558 210.17 211.398 239.919 186.392C255.824 173.011 265.011 153.289 265 132.5C265 127.929 261.291 124.219 256.719 124.219ZM17.1961 124.219C21.7464 94.8343 49.253 74.7136 78.6378 79.2655C101.81 82.8563 119.989 101.047 123.58 124.219H17.1961ZM124.218 247.804C94.8332 243.253 74.7125 215.747 79.2644 186.362C82.8552 163.189 101.046 145.011 124.218 141.419V247.804ZM140.781 17.2C170.165 21.7503 190.286 49.2569 185.734 78.6416C182.143 101.814 163.953 119.993 140.781 123.584V17.2ZM194.609 186.332C168.094 186.299 145.537 166.987 141.416 140.784H247.8C243.681 166.987 221.125 186.298 194.609 186.332Z" fill="var(--fill-0, white)"/>
</svg>
