<svg width="100%" height="100%" overflow="visible" style="display: block;" viewBox="0 0 251.136 248.86" fill="none" xmlns="http://www.w3.org/2000/svg">
<path id="Vector" d="M243.156 5.31802C238.073 1.06802 231.396 -0.767363 224.864 0.295291L96.0716 21.7987V21.8108C85.2052 23.634 77.2486 33.0636 77.2727 44.087V185.75C68.4105 180.787 58.4497 178.131 48.2955 178.022C21.25 178.022 0 193.61 0 213.435C0 233.272 21.25 248.86 48.2955 248.86C75.3409 248.86 96.5909 233.272 96.5909 213.447V103.454L231.818 80.2723V159.356C222.896 154.611 212.935 152.184 202.841 152.269C175.795 152.269 154.545 167.856 154.545 187.681C154.545 207.519 175.795 223.106 202.841 223.106C229.886 223.106 251.136 207.519 251.136 187.694V22.5836C251.076 15.943 248.166 9.6524 243.156 5.31802ZM48.2955 229.542C31.1625 229.542 19.3182 221.042 19.3182 213.447C19.3182 205.841 31.1625 197.341 48.2955 197.341C65.4284 197.341 77.2727 205.841 77.2727 213.435C77.2727 221.042 65.4284 229.542 48.2955 229.542ZM96.5909 83.8827V44.0873C96.5909 42.3124 98.0277 40.8635 99.8147 40.8635L228.594 19.36C229.524 19.2272 230.466 19.517 231.178 20.1327C231.891 20.7485 232.313 21.642 232.337 22.5837V61.2201L96.5909 83.8827ZM202.841 203.788C185.708 203.788 173.864 195.288 173.864 187.694C173.864 180.1 185.708 171.6 202.841 171.6C219.974 171.6 231.818 180.1 231.818 187.694C231.818 195.288 219.974 203.788 202.841 203.788Z" fill="var(--fill-0, white)"/>
</svg>
