<svg width="100%" height="100%" overflow="visible" style="display: block;" viewBox="0 0 201.966 201.786" fill="none" xmlns="http://www.w3.org/2000/svg">
<g id="icon-walk">
<path id="Vector" d="M80.9856 5.1484C82.9737 6.56123 84.1443 8.85204 84.5682 11.2539C85.648 17.4703 91.703 23.4345 93.9434 25.2005C104.893 33.9096 126.206 31.7198 133.513 30.1455C138.993 28.9546 144.27 32.3858 145.502 37.7748L147.601 47.0591L127.629 49.3398C122.089 49.9756 118.113 54.981 118.749 60.5113C118.749 60.5113 120.484 70.4617 129.91 69.3919L152.081 66.869L154.655 78.2121L135.138 80.4423C129.597 81.0781 125.621 86.0836 126.257 91.6138C126.257 91.6138 127.498 101.625 137.418 100.494L159.136 98.0119L162.072 110.97L178.36 117.559C204.639 130.931 201.833 150.7 201.833 150.7L201.843 154.394L142.646 154.404C129.143 154.404 122.997 147.219 122.664 146.805L28.1861 31.5987L50.418 6.31903C50.418 6.31903 63.8096 -7.0827 80.9856 5.1484Z" fill="var(--fill-0, black)"/>
<path id="Vector_2" d="M142.465 201.786H191.874C194.558 201.786 197.132 200.716 199.019 198.819C200.916 196.922 201.976 194.349 201.966 191.664L201.905 174.579L142.637 174.589C119.224 174.589 108.033 160.915 106.842 159.351L14.6745 46.9599L2.51403 60.7855C-0.765757 64.5194 -0.846492 70.09 2.33238 73.9147L91.1491 180.463C91.1491 180.463 112.604 201.786 142.465 201.786Z" fill="var(--fill-0, black)"/>
</g>
</svg>
