<svg width="100%" height="100%" overflow="visible" style="display: block;" viewBox="0 0 276.023 275.463" fill="none" xmlns="http://www.w3.org/2000/svg">
<path id="Vector" d="M138.011 0C101.412 0 66.3085 14.5111 40.416 40.3341C14.539 66.1709 0 101.207 0 137.731C0 174.256 14.5406 209.289 40.416 235.129C66.3054 260.953 101.412 275.463 138.011 275.463C174.61 275.463 209.714 260.952 235.607 235.129C261.484 209.292 276.023 174.256 276.023 137.731C276.023 101.207 261.482 66.1741 235.607 40.3341C209.717 14.5095 174.61 0 138.011 0ZM184.443 144.717L125.295 203.745C123.447 205.602 120.921 206.66 118.296 206.66C115.671 206.66 113.145 205.602 111.297 203.745C109.436 201.9 108.376 199.379 108.376 196.76C108.376 194.14 109.436 191.62 111.297 189.775L163.542 137.733L111.297 85.6907C107.427 81.8292 107.427 75.5823 111.297 71.7208C115.166 67.8593 121.426 67.8593 125.295 71.7208L184.443 130.749C186.303 132.593 187.363 135.114 187.363 137.734C187.363 140.353 186.304 142.872 184.443 144.717Z" fill="var(--fill-0, #D9D9D9)"/>
</svg>
