<svg width="100%" height="100%" overflow="visible" style="display: block;" viewBox="0 0 130.921 131.201" fill="none" xmlns="http://www.w3.org/2000/svg">
<g id="weather-clear">
<path id="Vector" d="M64.2039 34.1582C81.4427 33.4717 96.0095 46.8122 96.834 64.0411C97.6585 81.2696 84.4321 95.9395 67.2066 96.9021C49.7846 97.8752 34.9075 84.4681 34.0737 67.0431C33.2398 49.6182 46.7686 34.8523 64.2039 34.1582ZM66.5389 92.2344C81.2549 91.6338 92.7074 79.2371 92.1399 64.5232C91.5725 49.8093 79.1992 38.3308 64.4806 38.8645C49.7147 39.3998 38.1883 51.8192 38.7578 66.5807C39.3269 81.3422 51.7754 92.8373 66.5389 92.2344Z" fill="var(--fill-0, #FEB338)"/>
<path id="Vector_2" d="M64.7402 106.787C65.9277 107.062 66.0725 107.115 67.0573 107.83C68.5611 109.886 67.6157 125.519 67.7336 129.083C67.7612 129.912 66.6227 130.629 65.9487 131.201C64.7525 130.975 64.6156 131.009 63.7335 130.242C62.2107 127.032 63.2796 113.903 63.1874 109.856C63.1577 108.55 63.8377 107.693 64.7402 106.787Z" fill="var(--fill-0, #FEB338)"/>
<path id="Vector_3" d="M64.2731 0C65.6484 0.1108 66.1852 0.0305964 67.2072 0.849408C68.2968 3.37353 67.734 16.2235 67.8229 19.6927C67.8839 22.0721 67.7676 22.6681 66.2285 24.108C64.6507 24.0078 63.1871 23.6133 63.2224 21.7569C63.304 17.4564 62.0113 2.96728 64.2731 0Z" fill="var(--fill-0, #FEB338)"/>
<path id="Vector_4" d="M33.7114 94.2061C35.49 94.2423 36.5317 94.8782 36.7022 96.7134C35.846 99.1577 24.0962 110.126 21.4194 112.656C19.7794 112.565 19.4334 112.421 18.7334 110.91C18.9985 107.305 30.5911 97.1415 33.7114 94.2061Z" fill="var(--fill-0, #FEB338)"/>
<path id="Vector_5" d="M95.6907 94.126C96.4407 94.1902 97.2975 94.3966 97.8363 94.94C100.506 97.6324 112.003 107.514 112.391 110.59C112.044 111.675 111.519 111.992 110.65 112.803C108.403 112.491 95.1915 99.0564 94.1143 96.7345C94.2022 95.6002 94.9101 95.0319 95.6907 94.126Z" fill="var(--fill-0, #FEB338)"/>
<path id="Vector_6" d="M109.304 18.6578C110.915 18.5699 111.615 18.6828 112.327 20.1547C112.235 23.2004 100.384 33.8595 97.4204 36.767C96.8772 36.759 96.1729 36.6901 95.6158 36.6528C94.5342 35.916 94.9231 36.3871 94.4033 35.1899C94.7134 31.6611 106.236 21.5427 109.304 18.6578Z" fill="var(--fill-0, #FEB338)"/>
<path id="Vector_7" d="M19.4603 18.5283C19.7833 18.5589 20.8759 18.6891 21.0711 18.7897C23.9716 20.2865 35.6808 32.1569 36.6958 34.1884C36.6728 35.7042 36.6278 35.2971 35.7271 36.7896C35.3038 36.7946 34.0554 36.7886 33.8009 36.6102C30.971 34.6232 19.6568 23.4873 18.5186 21.284C18.3424 20.0878 18.7979 19.6463 19.4603 18.5283Z" fill="var(--fill-0, #FEB338)"/>
<path id="Vector_8" d="M108.1 63.3668C111.786 63.1434 115.926 63.2023 119.656 63.1917C122.656 63.183 129.95 62.2775 130.921 65.6577C130.717 66.778 130.635 66.8013 129.763 67.6153C125.503 67.924 121.045 67.905 116.766 67.9053C113.975 67.9057 108.499 68.5432 107.057 65.7922C107.106 64.5018 107.253 64.4352 108.1 63.3668Z" fill="var(--fill-0, #FEB338)"/>
<path id="Vector_9" d="M1.15441 63.3901C3.63568 63.2599 20.3798 62.5308 23.2823 64.1282C23.8901 64.4625 24.3999 66.4764 22.4941 67.6373C18.4058 67.9333 14.0444 67.905 9.93709 67.9127C7.17532 67.9176 1.13472 68.6374 0 65.6514C0.161409 64.3902 0.245395 64.3586 1.15441 63.3901Z" fill="var(--fill-0, #FEB338)"/>
</g>
</svg>
