<svg width="100%" height="100%" overflow="visible" style="display: block;" viewBox="0 0 133.67 99.3397" fill="none" xmlns="http://www.w3.org/2000/svg">
<g id="weather-drizzle">
<path id="Vector" d="M66.0719 0.160674C73.6046 -0.688301 84.0277 1.91722 90.3648 5.84914C100.825 12.3373 107.095 21.3904 110.079 33.1435C110.615 33.2261 111.155 33.3123 111.691 33.4029C118.86 34.6094 124.795 37.8448 129.014 43.8679C132.97 49.4968 134.495 56.4813 133.243 63.2468C132.011 69.8602 128.195 75.7104 122.637 79.5038C116.266 83.9085 109.493 84.3866 101.99 84.3706C99.7257 84.366 91.1774 85.0841 92.1098 80.8742C96.4189 76.4679 112.526 84.389 123.449 71.9257C127.066 67.8576 128.867 62.4901 128.438 57.0636C127.565 44.8903 117.811 37.17 105.81 38.1931C101.208 16.8056 89.7987 5.5605 67.3973 5.06976C49.9111 6.94883 39.5888 14.9618 33.1284 31.4302C20.1388 30.0825 9.04566 36.6493 5.88808 49.1142C1.10876 67.9811 17.9603 81.4685 35.7039 79.4076C37.976 79.144 40.2751 79.1756 41.482 81.2731C41.6095 83.0366 40.7067 84.0427 38.9015 84.1672C30.2399 84.7642 20.7289 84.5498 13.3481 79.354C6.75589 74.7136 2.01952 68.4895 0.515325 60.4845C-0.947578 52.8081 0.733791 44.866 5.18211 38.4404C11.9958 28.7412 19.4032 27.5606 29.843 25.7668C36.3067 11.0296 49.8045 0.891125 66.0719 0.160674Z" fill="var(--fill-0, #FEFEFE)"/>
<path id="Vector_2" d="M59.4352 82.7021C60.2977 82.7081 60.4742 82.7987 61.2934 83.0208C61.8129 83.5052 62.2657 83.7429 62.3257 84.51C62.5621 87.4717 57.9667 97.0625 56.4948 99.3397C54.8064 98.9236 54.0072 98.9502 53.2979 97.3055C53.8673 94.0495 57.6769 85.6243 59.4352 82.7021Z" fill="var(--fill-0, #26AAE0)"/>
<path id="Vector_3" d="M72.1374 82.7021C72.9998 82.7081 73.1763 82.7987 73.9955 83.0208C74.515 83.5052 74.9679 83.7429 75.0278 84.51C75.2643 87.4717 70.6688 97.0625 69.1969 99.3397C67.5086 98.9236 66.7093 98.9502 66 97.3055C66.5694 94.0495 70.3791 85.6243 72.1374 82.7021Z" fill="var(--fill-0, #26AAE0)"/>
</g>
</svg>
