<svg width="100%" height="100%" overflow="visible" style="display: block;" viewBox="0 0 133.72 124.426" fill="none" xmlns="http://www.w3.org/2000/svg">
<g id="weather-fog">
<path id="Vector" d="M65.522 0.223314C66.1987 0.140081 66.878 0.0801407 67.559 0.0435183C85.6254 -0.818774 102.771 11.2233 108.554 28.1595C109.117 29.8076 109.907 30.9262 109.851 32.7274C110.471 33.4931 114.045 33.8793 115.247 34.1989C130.68 38.2973 138.241 56.4854 130.88 70.302C127.529 76.5545 121.797 81.1922 114.981 83.1631C111.251 84.2552 93.0464 86.4525 91.8669 81.7848C92.9039 78.9449 99.2887 79.2012 102.051 79.5209C123.886 82.0445 137.784 59.1421 121.502 42.8918C117.594 38.9931 111.519 37.8279 105.701 38.2707C102.632 17.569 88.7703 5.45699 67.951 4.96425C48.9466 7.01844 40.655 14.7458 32.8846 31.6853C25.1115 29.6345 16.2352 33.4032 11.0972 39.366C6.79303 44.3267 4.69512 50.8255 5.28664 57.3676C5.63836 61.8688 7.32352 66.1603 10.1269 69.6994C20.7888 83.3396 37.8154 77.4034 40.9117 80.5596C41.5185 81.1755 41.5545 81.645 41.6004 82.4706C40.9187 83.4827 40.3243 84.0288 38.975 84.1553C28.9191 85.0276 20.9436 84.4715 12.5477 78.6486C-1.05436 69.2166 -4.07584 50.9321 5.8406 37.6281C12.034 29.3182 19.8327 27.194 29.8855 25.829C36.0901 11.6495 49.7664 0.885847 65.522 0.223314Z" fill="var(--fill-0, #FEFEFE)"/>
<path id="Vector_2" d="M83.8829 112.37C90.6499 112.137 101.419 113.782 107.653 116.991C108.238 117.458 108.806 118.13 108.79 118.879C108.748 120.833 107.41 121.166 105.709 120.797C99.469 119.445 93.2547 117.504 86.7993 117.314C74.0704 116.945 63.28 123.231 50.7532 124.209C47.7046 124.799 22.0373 124.662 25.791 117.494C27.3907 116.346 35.99 118.45 37.5412 118.736C54.0384 121.806 67.4316 113.855 83.8829 112.37Z" fill="var(--fill-0, #FEFEFE)"/>
<path id="Vector_3" d="M78.9857 96.0205C85.1703 95.1382 104.668 96.2901 108.681 101.451C109.027 102.892 107.995 104.45 106.797 104.277C101.246 103.481 96.8546 101.597 91.1252 100.935C78.2371 99.4463 68.49 104.201 56.3865 106.777C49.4126 107.673 29.3236 108.635 25.2546 102.786C25.0554 101.524 25.9949 99.999 26.7931 100.135C33.1066 101.191 38.5836 102.33 45.0276 102.583C57.2173 103.059 67.1969 97.7251 78.9857 96.0205Z" fill="var(--fill-0, #FEFEFE)"/>
</g>
</svg>
