<svg width="100%" height="100%" overflow="visible" style="display: block;" viewBox="0 0 133.67 99.3397" fill="none" xmlns="http://www.w3.org/2000/svg">
<g id="weather-rainFreezing">
<path id="Vector" d="M87.2854 83.2666L88.2279 83.4397C88.5908 84.4285 88.5708 84.3753 88.371 85.4207C84.7712 89.9685 88.7773 89.4491 88.1746 92.6086C86.9191 92.7984 85.2208 91.51 83.9986 91.2103C83.2361 91.0206 81.2713 92.6652 80.2057 93.2912C79.5031 90.5977 80.3722 90.0451 81.8774 87.8244C80.7352 86.6492 79.8061 86.0466 79.5264 84.5983C81.8241 83.24 83.7456 86.9455 87.2854 83.2666Z" fill="var(--fill-0, #26AAE0)"/>
<path id="Vector_2" d="M45.8325 83.46C48.5602 84.5154 48.7933 86.9258 52.2732 84.0259L52.5696 83.7729C53.6219 83.7863 53.1624 83.6131 53.9616 84.3789L53.9349 85.0414C50.5982 88.3574 54.531 90.082 53.9782 92.6589C53.0691 92.8852 53.5453 92.8919 52.5363 92.3759C49.3727 89.7191 47.5445 92.549 45.03 92.2993C44.998 90.9876 46.8059 89.0099 47.6731 87.9212C46.4632 86.5329 45.352 86.1068 45 84.6019L45.8325 83.46Z" fill="var(--fill-0, #26AAE0)"/>
<path id="Vector_3" d="M66.0719 0.160674C73.6046 -0.688301 84.0277 1.91722 90.3648 5.84914C100.825 12.3373 107.095 21.3904 110.079 33.1435C110.615 33.2261 111.155 33.3123 111.691 33.4029C118.86 34.6094 124.795 37.8448 129.014 43.8679C132.97 49.4968 134.495 56.4813 133.243 63.2468C132.011 69.8602 128.195 75.7104 122.637 79.5038C116.266 83.9085 109.493 84.3866 101.99 84.3706C99.7257 84.366 91.1774 85.0841 92.1098 80.8742C96.4189 76.4679 112.526 84.389 123.449 71.9257C127.066 67.8576 128.867 62.4901 128.438 57.0636C127.565 44.8903 117.811 37.17 105.81 38.1931C101.208 16.8056 89.7987 5.5605 67.3973 5.06976C49.9111 6.94883 39.5888 14.9618 33.1284 31.4302C20.1388 30.0825 9.04566 36.6493 5.88808 49.1142C1.10876 67.9811 17.9603 81.4685 35.7039 79.4076C37.976 79.144 40.2751 79.1756 41.482 81.2731C41.6095 83.0366 40.7067 84.0427 38.9015 84.1672C30.2399 84.7642 20.7289 84.5498 13.3481 79.354C6.75589 74.7136 2.01952 68.4895 0.515325 60.4845C-0.947578 52.8081 0.733791 44.866 5.18211 38.4404C11.9958 28.7412 19.4032 27.5606 29.843 25.7668C36.3067 11.0296 49.8045 0.891125 66.0719 0.160674Z" fill="var(--fill-0, #FEFEFE)"/>
<path id="Vector_4" d="M68.4352 82.7021C69.2977 82.7081 69.4742 82.7987 70.2934 83.0208C70.8129 83.5052 71.2657 83.7429 71.3257 84.51C71.5621 87.4717 66.9667 97.0625 65.4948 99.3397C63.8064 98.9236 63.0072 98.9502 62.2979 97.3055C62.8673 94.0495 66.6769 85.6243 68.4352 82.7021Z" fill="var(--fill-0, #26AAE0)"/>
</g>
</svg>
