<svg width="100%" height="100%" overflow="visible" style="display: block;" viewBox="0 0 133.67 125.458" fill="none" xmlns="http://www.w3.org/2000/svg">
<g id="weather-rainHeavy">
<path id="Vector" d="M66.0719 0.160674C73.6046 -0.688301 84.0277 1.91722 90.3648 5.84914C100.825 12.3373 107.095 21.3904 110.079 33.1435C110.615 33.2261 111.155 33.3123 111.691 33.4029C118.86 34.6094 124.795 37.8448 129.014 43.8679C132.97 49.4968 134.495 56.4813 133.243 63.2468C132.011 69.8602 128.195 75.7104 122.637 79.5038C116.266 83.9085 109.493 84.3866 101.99 84.3706C99.7257 84.366 91.1774 85.0841 92.1098 80.8742C96.4189 76.4679 112.526 84.389 123.449 71.9257C127.066 67.8576 128.867 62.4901 128.438 57.0636C127.565 44.8903 117.811 37.17 105.81 38.1931C101.208 16.8056 89.7987 5.5605 67.3973 5.06976C49.9111 6.94883 39.5888 14.9618 33.1284 31.4302C20.1388 30.0825 9.04566 36.6493 5.88808 49.1142C1.10876 67.9811 17.9603 81.4685 35.7039 79.4076C37.976 79.144 40.2751 79.1756 41.482 81.2731C41.6095 83.0366 40.7067 84.0427 38.9015 84.1672C30.2399 84.7642 20.7289 84.5498 13.3481 79.354C6.75589 74.7136 2.01952 68.4895 0.515325 60.4845C-0.947578 52.8081 0.733791 44.866 5.18211 38.4404C11.9958 28.7412 19.4032 27.5606 29.843 25.7668C36.3067 11.0296 49.8045 0.891125 66.0719 0.160674Z" fill="var(--fill-0, #FEFEFE)"/>
<path id="Vector_2" d="M44.1763 108.795C49.8371 108.835 45.9246 115.45 44.778 118.323C43.9275 120.454 42.6321 123.507 41.3464 125.288C40.0457 125.205 39.063 125.055 38.2255 124.003C37.6064 121.32 42.6242 111.418 44.1763 108.795Z" fill="var(--fill-0, #26AAE0)"/>
<path id="Vector_3" d="M77.6132 82.7695C81.0799 82.8158 81.0033 84.7495 80.0576 87.5058C78.7222 91.3895 76.5143 95.075 75.0125 98.8937L74.8993 99.19C73.3308 99.1401 72.7514 99.0136 71.8123 97.7717C71.103 94.4857 75.8217 85.7536 77.6132 82.7695Z" fill="var(--fill-0, #26AAE0)"/>
<path id="Vector_4" d="M65.4352 82.7021C66.2977 82.7081 66.4742 82.7987 67.2934 83.0208C67.8129 83.5052 68.2657 83.7429 68.3257 84.51C68.5621 87.4717 63.9667 97.0625 62.4948 99.3397C60.8064 98.9236 60.0072 98.9502 59.2979 97.3055C59.8673 94.0495 63.6769 85.6243 65.4352 82.7021Z" fill="var(--fill-0, #26AAE0)"/>
<path id="Vector_5" d="M56.4272 108.835C57.0333 108.855 57.5361 108.938 58.1322 109.018C59.9004 110.327 59.4709 111.978 58.7249 113.859C57.1731 117.768 55.1384 121.52 53.6366 125.458C51.7851 125.105 50.8426 124.949 50.2266 123.124C50.6395 120.654 54.8521 110.536 56.4272 108.835Z" fill="var(--fill-0, #26AAE0)"/>
<path id="Vector_6" d="M54.0762 82.7842C54.8721 82.8491 54.7655 82.8944 55.5248 83.2536C56.0243 83.9701 56.3673 84.3133 56.2041 85.3441C55.6846 88.6461 52.3978 97.0027 50.1034 99.1501C49.3308 98.9836 46.7264 98.5042 47.118 97.2257C48.3957 93.0574 50.9492 85.7283 54.0762 82.7842Z" fill="var(--fill-0, #26AAE0)"/>
<path id="Vector_7" d="M68.9724 108.759C69.7716 108.815 69.8316 108.862 70.6042 109.112C72.8986 111.978 67.0776 123.058 64.7099 125.206C64.3802 125.092 63.6043 124.71 63.2447 124.543C61.3699 121.95 66.6147 110.743 68.9724 108.759Z" fill="var(--fill-0, #26AAE0)"/>
</g>
</svg>
