<svg width="100%" height="100%" overflow="visible" style="display: block;" viewBox="0 0 173.131 126.79" fill="none" xmlns="http://www.w3.org/2000/svg">
<g id="weather-mostlyCloudy">
<path id="Vector" d="M41.6691 86.1338C39.721 84.1998 37.633 80.6075 36.5441 78.0965C33.2107 70.3995 33.1074 61.685 36.261 53.9114C39.4146 46.1817 45.4887 40.0065 53.1678 36.7242C61.0002 33.4798 69.8049 33.5057 77.6139 36.7971C81.3503 38.3555 88.4766 42.8661 89.9852 46.5639C103.109 41.5936 112.47 40.7197 125.857 46.3708C135.78 50.5598 144.698 60.4965 147.892 70.6292C148.168 71.5135 149.337 75.0066 149.837 75.4621C152.141 76.0986 156.533 77.0631 158.565 78.0646C169.994 83.6974 175.591 96.2902 172.102 108.435C170.19 114.923 165.781 120.389 159.847 123.637C152.87 127.482 145.031 126.735 137.352 126.726L114.644 126.699L83.7679 126.712C78.6496 126.719 72.2525 126.909 67.2507 126.663C64.9696 126.548 62.7085 126.16 60.5173 125.509C43.4373 120.417 35.232 102.597 41.6691 86.1338ZM69.3253 68.5787C72.5422 59.5569 78.523 54.0626 86.029 48.6494C75.5826 37.1254 59.0421 35.2137 47.3302 45.9983C42.0054 50.9187 38.9118 57.7907 38.7519 65.038C38.5754 71.6869 40.4935 76.2045 43.8969 81.6952C45.4254 79.9137 47.2103 77.8751 48.9087 76.2727C54.4432 71.1319 61.7761 68.369 69.3253 68.5787ZM72.5289 73.9302C66.3949 72.8912 59.6082 74.5152 54.5498 78.1468C49.4548 81.8107 46.0082 87.334 44.9559 93.5212C42.8646 106.446 50.8135 119.096 64.56 121.452C68.8891 122.194 75.5426 121.743 80.1048 121.74L109.802 121.712L136.35 121.74C145.861 121.742 154.585 123.103 161.968 115.736C165.851 111.85 168.006 106.564 167.946 101.072C167.899 87.6733 157.892 80.5396 145.221 80.6864C140.719 57.9156 125.88 45.8275 102.476 47.91C86.4353 51.6358 78.6929 58.7855 72.5289 73.9302Z" fill="var(--fill-0, #FEFEFE)"/>
<path id="Vector_2" d="M41.6691 86.1338C39.721 84.1998 37.633 80.6075 36.5441 78.0965C33.2107 70.3995 33.1074 61.685 36.261 53.9114C39.4146 46.1817 45.4887 40.0065 53.1678 36.7242C61.0002 33.4798 69.8049 33.5057 77.6139 36.7971C81.3503 38.3555 88.4766 42.8661 89.9852 46.5639C88.3534 47.3064 87.5376 47.666 86.029 48.6494C75.5826 37.1254 59.0421 35.2137 47.3302 45.9983C42.0054 50.9187 38.9118 57.7907 38.7519 65.038C38.5754 71.6869 40.4935 76.2045 43.8969 81.6952C43.101 83.1241 42.1952 84.602 41.6691 86.1338Z" fill="var(--fill-0, #FEB338)"/>
<path id="Vector_3" d="M64.8065 0C65.9387 0.121559 66.285 0.388584 67.1442 1.06511C68.383 3.06686 67.687 18.449 67.7403 21.8193C67.7602 23.0313 66.8645 23.5872 65.9454 24.3549C64.3436 23.9657 64.7599 24.2828 63.6443 23.2677C62.4688 20.262 63.0682 7.34921 63.0982 3.45568C63.1115 1.67758 63.5111 1.09004 64.8065 0Z" fill="var(--fill-0, #FEB338)"/>
<path id="Vector_4" d="M20.3429 18.3828C23.1136 19.5305 36.617 32.5266 36.6204 35.2158C36.1042 36.3508 35.6447 36.5652 34.6257 37.3682C34.4458 37.263 33.7265 36.8335 33.5933 36.7067C30.7594 33.9906 18.951 23.8028 18.4814 20.6777C18.8278 19.5646 19.4472 19.1834 20.3429 18.3828Z" fill="var(--fill-0, #FEB338)"/>
<path id="Vector_5" d="M33.8366 94.2236C40.5333 95.1062 33.4636 101.025 31.5521 102.809C28.1088 106.015 24.8154 109.93 21.1123 112.771C16.9464 112.012 18.4283 109.288 20.5695 107.168C24.9286 102.845 29.2244 98.2744 33.8366 94.2236Z" fill="var(--fill-0, #FEB338)"/>
<path id="Vector_6" d="M109.816 18.3916C111.424 19.0616 112.113 19.4572 112.3 21.2378C111.454 23.4425 98.5767 35.8859 96.5021 37.2939C94.9936 36.4785 94.2742 36.0497 94.1377 34.3215C95.3232 31.9412 107.411 20.2461 109.816 18.3916Z" fill="var(--fill-0, #FEB338)"/>
<path id="Vector_7" d="M1.09561 63.4969C6.69347 63.6164 12.3346 63.3827 17.9325 63.4469C20.1803 63.4726 23.3339 63.2905 23.9899 65.8231C23.6103 67.0346 23.5004 67.1408 22.478 67.9056C18.5685 68.3367 13.7965 68.0364 9.79706 68.1386C7.02644 68.2092 1.18884 68.8181 0 65.8817C0.146523 64.5646 0.196488 64.5326 1.09561 63.4969Z" fill="var(--fill-0, #FEB338)"/>
</g>
</svg>
