<svg width="100%" height="100%" overflow="visible" style="display: block;" viewBox="0 0 133.627 84.2913" fill="none" xmlns="http://www.w3.org/2000/svg">
<g id="weather-overcast">
<path id="Vector" d="M66.189 0.0731806C66.865 0.0345606 67.541 0.0109233 68.217 0.00226707C84.1148 -0.161868 98.7638 8.59755 106.14 22.6789C107.858 25.929 108.814 29.3515 110.049 32.7937C110.233 33.305 115.011 34.2343 115.777 34.4607C126.553 37.6391 133.7 47.7136 133.626 58.8845C133.6 65.6656 130.876 72.1575 126.054 76.927C122.857 80.0576 118.881 82.2766 114.538 83.3543C109.447 84.6301 99.8894 84.2335 94.2915 84.2312L68.0937 84.2142L32.6131 84.2415C30.2767 84.2402 27.7708 84.3091 25.4624 83.9922C10.4401 81.9313 -0.272772 69.3801 0.00528965 54.3766C0.151813 46.6749 3.38899 39.3551 8.98819 34.0638C14.6493 28.7802 22.1473 25.9113 29.8901 26.0665C30.7865 23.0115 33.403 18.5945 35.432 16.1431C43.98 5.81425 53.2549 1.53442 66.189 0.0731806ZM33.055 31.4636C27.6836 30.327 20.7194 31.9627 16.0926 34.9304C10.7318 38.4032 6.97581 43.8686 5.65677 50.1174C2.56679 65.2591 13.4625 79.0818 28.8218 79.2073C32.6384 79.2386 36.45 79.2509 40.2669 79.2499L70.4248 79.2236L96.8357 79.2529C100.652 79.2539 109.323 79.4859 112.48 78.7448C116.307 77.8296 119.81 75.8796 122.6 73.1086C131.775 63.8408 129.973 48.0036 118.924 41.1662C114.708 38.559 110.626 38.1469 105.777 38.2181C103.406 27.1388 100.026 18.8242 90.4419 11.8646C81.6605 5.48798 73.3086 4.71657 62.8722 5.42372C46.973 9.28406 39.1018 16.252 33.055 31.4636Z" fill="var(--fill-0, #FEFEFE)"/>
</g>
</svg>
