<svg width="100%" height="100%" overflow="visible" style="display: block;" viewBox="0 0 133.697 96.213" fill="none" xmlns="http://www.w3.org/2000/svg">
<g id="weather-snow">
<path id="Vector" d="M65.4524 0.259093C82.5823 -1.8983 101.054 9.67105 107.485 25.5053C108.34 27.616 109.796 30.6757 109.692 32.9529C112.903 33.5256 115.893 34.2447 118.88 35.5997C125.104 38.4163 129.919 43.64 132.217 50.0723C134.475 56.4179 134.139 63.3995 131.285 69.4988C128.241 75.7812 122.796 80.5754 116.183 82.806C113.429 83.7383 87.8338 87.81 92.9988 79.9328C94.0877 79.2969 105.007 79.6032 107.664 79.4368C119.779 78.691 129.62 69.3956 128.404 56.591C127.928 51.1443 125.291 46.117 121.085 42.6246C116.453 38.8325 111.567 37.7904 105.76 38.3231C102.513 17.3951 89.0193 5.90227 68.1131 5.1665C50.547 5.96553 39.5554 15.6105 33.1117 31.4914C24.1384 30.8754 17.5928 32.2538 11.2906 39.1987C6.78205 44.1627 4.85595 50.2087 5.22126 56.8774C5.47302 61.595 7.19798 66.1162 10.1528 69.8017C21.4394 84.0712 37.2147 76.8699 41.1418 80.4422C41.688 81.7373 41.5907 81.1814 41.4122 82.5663C40.8597 83.4686 40.3409 83.9713 39.2024 84.1511C22.545 86.7713 3.61749 78.7809 0.456247 60.22C-0.924403 52.5359 0.858198 44.6188 5.39976 38.2665C12.308 28.7047 19.51 27.5861 29.8728 25.8548C36.7478 10.8529 48.8216 1.66073 65.4524 0.259093Z" fill="var(--fill-0, #FEFEFE)"/>
<path id="Vector_2" d="M88.6126 86.1885L89.555 86.3616C89.918 87.3504 89.898 87.2971 89.6982 88.3425C86.0984 92.8904 90.1045 92.371 89.5017 95.5305C88.2463 95.7203 86.5479 94.4318 85.3258 94.1322C84.5632 93.9424 82.5985 95.5871 81.5329 96.213C80.8302 93.5196 81.6993 92.9669 83.2045 90.7463C82.0623 89.571 81.1332 88.9685 80.8535 87.5202C83.1513 86.1618 85.0727 89.8674 88.6126 86.1885Z" fill="var(--fill-0, #26AAE0)"/>
<path id="Vector_3" d="M71.5459 86.1719C71.9588 86.2251 72.2219 86.355 72.6216 86.4981C73.5273 88.4358 71.103 89.0784 71.0531 90.3735C71.0064 91.4988 72.6549 94.5318 72.4584 95.6571C71.0098 95.6538 70.1806 94.2355 68.8153 94.1356C65.5218 93.8926 66.9271 96.1032 63.5604 95.2975C63.1608 94.069 65.2987 91.8517 66.1445 90.6764C65.2254 89.7675 63.5637 88.5091 63.4805 87.487L64.323 86.8178C66.4842 86.8078 65.5984 88.3559 67.9861 88.8786C69.2748 88.4624 70.4936 87.1307 71.5459 86.1719Z" fill="var(--fill-0, #26AAE0)"/>
<path id="Vector_4" d="M47.1597 86.3818C49.8873 87.4372 50.1204 89.8476 53.6004 86.9478L53.8968 86.6948C54.9491 86.7081 54.4895 86.535 55.2887 87.3007L55.2621 87.9633C51.9253 91.2793 55.8582 93.0038 55.3054 95.5807C54.3963 95.8071 54.8725 95.8138 53.8635 95.2977C50.6999 92.641 48.8717 95.4709 46.3571 95.2212C46.3252 93.9094 48.1331 91.9318 49.0002 90.8431C47.7904 89.4548 46.6791 89.0287 46.3271 87.5238L47.1597 86.3818Z" fill="var(--fill-0, #26AAE0)"/>
</g>
</svg>
