<svg width="100%" height="100%" overflow="visible" style="display: block;" viewBox="0 0 133.77 119.057" fill="none" xmlns="http://www.w3.org/2000/svg">
<g id="weather-thunderstorm">
<path id="Vector" d="M65.3979 0.197791C68.5747 -0.191738 71.9215 0.0346483 75.075 0.524057C88.4786 2.59489 101.629 11.4708 107.084 24.2021C107.68 25.5971 109.438 32.2391 110.024 32.8816C110.55 33.4576 122.062 34.22 128.959 43.7985C132.965 49.2985 134.567 56.1868 133.395 62.8887C132.216 69.564 128.42 75.4935 122.852 79.3588C116.501 83.7868 109.938 84.5292 102.415 84.4027C99.4379 84.3528 93.8734 85.1918 92.0418 82.3752C92.3848 78.4399 98.7119 79.4321 101.523 79.492C109.764 79.6618 117.41 78.7262 123.305 72.1975C126.968 68.1623 128.842 62.8188 128.5 57.3787C128.24 51.902 125.792 46.7582 121.703 43.0993C116.987 38.9077 111.899 37.829 105.812 38.2085C103.357 26.6092 99.7743 17.9264 89.461 11.0513C82.348 6.30707 76.527 5.35486 68.2584 5.0752C50.2893 6.25378 39.9827 14.9866 33.0661 31.3968C24.5245 30.8741 18.1274 32.0826 11.9101 38.4716C7.22472 43.2824 5.05016 49.2352 5.19336 55.9205C5.26662 60.6881 6.85173 65.3124 9.72559 69.1212C20.8048 84.0232 37.3186 77.0317 41.2515 80.7572C41.6644 81.9291 41.6278 81.3364 41.2681 82.6016C38.9171 85.4348 35.7468 84.2529 32.48 84.3961C0.637832 85.8077 -12.8257 45.816 15.3867 29.5656C19.7158 27.072 24.7409 26.4927 29.8826 25.7935C32.0072 21.239 33.4424 18.7787 36.5927 14.7469C42.2372 7.52226 54.2987 1.10333 63.4797 0.370881L65.3979 0.197791Z" fill="var(--fill-0, #FEFEFE)"/>
<path id="Vector_2" d="M70.3802 79.1689L70.6965 79.6151C69.9273 83.9099 67.8393 93.1687 66.5506 97.2271C68.795 97.5967 71.0428 97.9496 73.2906 98.2958L58.3919 119.008L58.1521 119.057C57.9456 118.455 62.6311 103.4 63.2172 101.485C60.9327 100.943 59.2877 100.643 56.96 100.307C61.3856 93.2253 65.9944 86.3103 70.3802 79.1689Z" fill="var(--fill-0, #FEB338)"/>
<path id="Vector_3" d="M95.8418 94.1074C96.1514 94.2073 96.8241 94.4903 97.0805 94.71C97.4768 95.0463 97.7365 95.5157 97.8165 96.0284C98.1761 98.3989 93.1977 108.953 91.6792 110.967C91.1497 110.787 89.4513 110.148 89.2648 109.818C87.4466 106.626 93.8204 96.0284 95.8418 94.1074Z" fill="var(--fill-0, #26AAE0)"/>
<path id="Vector_4" d="M27.2626 94.1377C27.922 94.3108 28.0918 94.4806 28.6779 94.8336C29.1008 95.536 29.2573 95.5194 29.2807 96.2984C29.3672 99.2116 24.6785 109.17 23.1133 110.874C18.5345 109.286 20.2561 107.591 21.8179 103.66C23.1833 100.22 24.5553 96.7146 27.2626 94.1377Z" fill="var(--fill-0, #26AAE0)"/>
<path id="Vector_5" d="M38.6217 94.1279C39.6307 94.2311 41.2891 94.5341 41.3024 95.7393C41.359 100.077 37.3729 107.072 35.5547 110.778C34.6089 110.515 32.0881 109.886 32.4277 108.604C33.3002 105.278 36.4738 96.3053 38.6217 94.1279Z" fill="var(--fill-0, #26AAE0)"/>
<path id="Vector_6" d="M107.004 94.1904C108.51 94.2037 108.58 94.2337 109.519 95.2492C110.598 98.4786 105.846 107.245 104.194 110.707C103.421 110.534 100.914 110.018 101.014 109.076C101.463 104.828 104.963 97.7228 107.004 94.1904Z" fill="var(--fill-0, #26AAE0)"/>
</g>
</svg>
